<?xml version="1.0" encoding="UTF-8" standalone="no"?>
<svg
   viewBox="0 0 72 72"
   version="1.1"
   id="svg874"
   sodipodi:docname="codeed.svg"
   inkscape:version="1.1.1 (c3084ef, 2021-09-22)"
   xmlns:inkscape="http://www.inkscape.org/namespaces/inkscape"
   xmlns:sodipodi="http://sodipodi.sourceforge.net/DTD/sodipodi-0.dtd"
   xmlns="http://www.w3.org/2000/svg"
   xmlns:svg="http://www.w3.org/2000/svg">
  <defs
     id="defs878" />
  <sodipodi:namedview
     id="namedview876"
     pagecolor="#505050"
     bordercolor="#eeeeee"
     borderopacity="1"
     inkscape:pageshadow="0"
     inkscape:pageopacity="0"
     inkscape:pagecheckerboard="0"
     showgrid="false"
     inkscape:snap-grids="true"
     inkscape:snap-page="false"
     inkscape:zoom="3.2777778"
     inkscape:cx="36.305084"
     inkscape:cy="11.59322"
     inkscape:window-width="1462"
     inkscape:window-height="1109"
     inkscape:window-x="166"
     inkscape:window-y="25"
     inkscape:window-maximized="0"
     inkscape:current-layer="svg874"
     inkscape:showpageshadow="true"
     showborder="false" />
  <rect
     style="fill:#363636;stroke-width:1.01748;fill-opacity:1"
     id="rect1069"
     width="72"
     height="72"
     x="0"
     y="0"
     ry="6"
     rx="6" />
  <path
     d="m 59.982,28.419 c -0.0045,-0.0315 -0.012,-0.06 -0.0165,-0.09 -0.0105,-0.0585 -0.021,-0.117 -0.036,-0.1725 -0.009,-0.0345 -0.0225,-0.0675 -0.033,-0.1005 -0.0165,-0.051 -0.033,-0.1005 -0.0525,-0.15 -0.0135,-0.0345 -0.03,-0.069 -0.0465,-0.1005 -0.021,-0.048 -0.0435,-0.093 -0.0705,-0.1365 -0.018,-0.033 -0.039,-0.0645 -0.0585,-0.096 -0.027,-0.0435 -0.0555,-0.0855 -0.087,-0.126 -0.0225,-0.03 -0.0465,-0.06 -0.0705,-0.0885 -0.033,-0.039 -0.0675,-0.0765 -0.1035,-0.1125 -0.027,-0.027 -0.0525,-0.0555 -0.081,-0.0795 -0.039,-0.0345 -0.078,-0.0675 -0.117,-0.099 -0.0315,-0.024 -0.0615,-0.048 -0.093,-0.0705 -0.012,-0.0075 -0.0225,-0.018 -0.0345,-0.0255 L 37.1445,12.3465 c -0.693,-0.462 -1.5945,-0.462 -2.289,0 l -21.936,14.625 c -0.012,0.0075 -0.0225,0.018 -0.0345,0.0255 -0.033,0.0225 -0.063,0.0465 -0.093,0.0705 -0.0405,0.0315 -0.0795,0.0645 -0.117,0.099 -0.0285,0.024 -0.0555,0.0525 -0.0825,0.0795 -0.036,0.036 -0.0705,0.0735 -0.102,0.1125 -0.0255,0.0285 -0.0495,0.0585 -0.072,0.0885 -0.03,0.0405 -0.0585,0.0825 -0.0855,0.126 -0.021,0.0315 -0.0405,0.063 -0.06,0.096 -0.0255,0.0435 -0.048,0.0885 -0.0705,0.1365 -0.015,0.0315 -0.0315,0.066 -0.045,0.1005 -0.021,0.0495 -0.0375,0.099 -0.054,0.15 -0.0105,0.033 -0.0225,0.066 -0.0315,0.1005 -0.015,0.0555 -0.0255,0.114 -0.036,0.1725 -0.006,0.03 -0.0135,0.0585 -0.0165,0.09 C 12.0075,28.506 12,28.596 12,28.6875 v 14.625 c 0,0.09 0.0075,0.18 0.0195,0.27 0.003,0.0285 0.0105,0.0585 0.0165,0.0885 0.0105,0.0585 0.021,0.1155 0.036,0.1725 0.009,0.0345 0.021,0.0675 0.0315,0.1005 0.0165,0.0495 0.033,0.1005 0.054,0.1515 0.0135,0.033 0.03,0.066 0.045,0.099 0.0225,0.0465 0.045,0.0915 0.0705,0.138 0.0195,0.0315 0.039,0.063 0.06,0.0945 0.027,0.0435 0.0555,0.084 0.0855,0.1245 0.0225,0.0315 0.0465,0.0615 0.072,0.09 0.0315,0.0375 0.066,0.0765 0.102,0.111 0.027,0.0285 0.054,0.0555 0.0825,0.081 0.0375,0.0345 0.0765,0.0675 0.117,0.099 0.03,0.024 0.06,0.048 0.093,0.0705 0.012,0.0075 0.0225,0.018 0.0345,0.0255 l 21.936,14.625 C 35.202,59.8845 35.601,60 36,60 c 0.399,0 0.798,-0.1155 1.1445,-0.3465 L 59.082,45.0285 c 0.012,-0.0075 0.0225,-0.018 0.0345,-0.0255 0.0315,-0.0225 0.0615,-0.0465 0.093,-0.0705 0.039,-0.0315 0.078,-0.0645 0.117,-0.099 0.0285,-0.0255 0.054,-0.0525 0.081,-0.081 0.036,-0.0345 0.0705,-0.0735 0.1035,-0.111 0.024,-0.0285 0.048,-0.0585 0.0705,-0.09 0.0315,-0.0405 0.06,-0.081 0.087,-0.1245 0.0195,-0.0315 0.0405,-0.063 0.0585,-0.0945 0.027,-0.0465 0.0495,-0.0915 0.0705,-0.138 0.0165,-0.033 0.033,-0.066 0.0465,-0.099 0.0195,-0.051 0.036,-0.102 0.0525,-0.1515 0.0105,-0.033 0.024,-0.066 0.033,-0.1005 0.015,-0.057 0.0255,-0.114 0.036,-0.1725 0.0045,-0.03 0.012,-0.06 0.0165,-0.0885 0.012,-0.09 0.018,-0.18 0.018,-0.27 V 28.6875 C 60,28.596 59.994,28.506 59.982,28.419 Z m -21.9195,-10.5015 16.161,10.773 -7.218,4.8285 -8.943,-5.982 z m -4.125,0 V 27.537 L 24.996,33.519 17.7765,28.6905 Z M 16.125,32.5485 21.2865,36 16.125,39.4515 Z m 17.8125,21.534 -16.161,-10.773 7.2195,-4.827 8.9415,5.9805 z M 36,40.8795 28.7055,36 36,31.1205 43.296,36 Z m 2.0625,13.203 V 44.463 l 8.943,-5.9805 7.218,4.827 z M 55.875,39.4515 50.715,36 l 5.16,-3.4515 z"
     fill="#ffffff"
     id="path870"
     style="fill-rule:evenodd;fill:#f58c2d;fill-opacity:1" />
</svg>
